<svg xmlns="http://www.w3.org/2000/svg" width="1200" height="260" viewBox="0 0 1200 260"><defs><linearGradient id="bg" x1="0" y1="0" x2="1" y2="1"><stop offset="0" stop-color="#020913"/><stop offset=".55" stop-color="#061927"/><stop offset="1" stop-color="#020b13"/></linearGradient><linearGradient id="c" x1="0" y1="0" x2="1" y2="0"><stop offset="0" stop-color="#087dff"/><stop offset=".5" stop-color="#35efff"/><stop offset="1" stop-color="#00a7ff"/></linearGradient><filter id="g" x="-100%" y="-100%" width="300%" height="300%"><feGaussianBlur stdDeviation="5" result="b"/><feMerge><feMergeNode in="b"/><feMergeNode in="SourceGraphic"/></feMerge></filter><pattern id="grid" width="30" height="30" patternUnits="userSpaceOnUse"><path d="M30 0H0V30" fill="none" stroke="#12344b" opacity=".25"/></pattern></defs><rect width="1200" height="260" rx="24" fill="url(#bg)"/><rect width="1200" height="260" rx="24" fill="url(#grid)"/><rect x="1" y="1" width="1198" height="258" rx="23" fill="none" stroke="#173a50"/><rect x="55" y="60" width="7" height="140" rx="4" fill="url(#c)" filter="url(#g)"/><text x="89" y="84" fill="#59eaff" font-family="ui-monospace,Consolas,monospace" font-size="13" letter-spacing="3">LEVIATHAN // DOCUMENTATION</text><text x="86" y="143" fill="#f3fbff" font-family="Segoe UI,Arial,sans-serif" font-size="50" font-weight="800">Leviathan Docs</text><text x="89" y="179" fill="#a7bfcd" font-family="Segoe UI,Arial,sans-serif" font-size="18">Official public documentation hub for the Leviathan ecosystem</text><text x="89" y="211" fill="#668ba0" font-family="ui-monospace,Consolas,monospace" font-size="11">LAUNCHER • AUTH • CAST • API • INTEGRATIONS • SECURITY • TROUBLESHOOTING</text><g transform="translate(1015 130)"><circle r="82" fill="none" stroke="#16b8db" stroke-width="1.5" stroke-dasharray="6 10" opacity=".5"><animateTransform attributeName="transform" type="rotate" from="0" to="360" dur="18s" repeatCount="indefinite"/></circle><circle r="55" fill="none" stroke="#5aefff" stroke-width="1" stroke-dasharray="3 8"><animateTransform attributeName="transform" type="rotate" from="360" to="0" dur="11s" repeatCount="indefinite"/></circle><rect x="-31" y="-40" width="62" height="80" rx="7" fill="#071a26" stroke="#3fe8ff"/><line x1="-19" y1="-17" x2="19" y2="-17" stroke="#3fe8ff"/><line x1="-19" y1="0" x2="13" y2="0" stroke="#278eac"/><line x1="-19" y1="17" x2="19" y2="17" stroke="#278eac"/><circle r="4" fill="#7cf5ff" filter="url(#g)"><animateMotion dur="4s" repeatCount="indefinite" path="M-55 -55 A78 78 0 1 1 -56 -54"/></circle></g></svg>